<svg width="22" height="20" viewBox="0 0 22 20" fill="none" xmlns="http://www.w3.org/2000/svg">
<path d="M21.8107 4.51673C21.684 4.00363 21.4883 3.51144 21.2294 3.05451C20.9807 2.57917 20.6627 2.14626 20.2866 1.771C19.7413 1.20908 19.0955 0.762122 18.3852 0.455006C16.9556 -0.151669 15.3523 -0.151669 13.9227 0.455006C13.2513 0.748812 12.6346 1.16113 12.0999 1.67352L12.0214 1.771L11 2.82705L9.97863 1.771L9.90007 1.67352C9.36542 1.16113 8.74865 0.748812 8.07732 0.455006C6.64766 -0.151669 5.04441 -0.151669 3.61475 0.455006C2.90448 0.762122 2.25873 1.20908 1.71344 1.771C0.967625 2.52133 0.439671 3.47241 0.189246 4.51673C0.0560212 5.04706 -0.00740388 5.59355 0.000686793 6.14141C0.000686793 6.65644 0.06354 7.16984 0.189246 7.66862C0.320977 8.17234 0.510904 8.65783 0.754925 9.11459C1.01846 9.58414 1.34074 10.0157 1.71344 10.3981L11 20L20.2866 10.3981C20.659 10.0195 20.9779 9.58575 21.2294 9.11459C21.7397 8.21306 22.0057 7.186 21.9993 6.14141C22.0075 5.59354 21.944 5.04705 21.8107 4.51673ZM20.2394 7.16497C20.0512 7.90732 19.6773 8.58534 19.1552 9.13084L10.9686 17.5792L2.78194 9.13084C2.51516 8.85304 2.28291 8.54196 2.09056 8.20477C1.90955 7.87118 1.76715 7.51673 1.6663 7.14872C1.58578 6.78076 1.54364 6.40493 1.54059 6.02769C1.54272 5.63965 1.58486 5.25295 1.6663 4.87416C1.76419 4.50509 1.90674 4.15027 2.09056 3.81811C2.27911 3.47693 2.51167 3.16823 2.78194 2.89204C3.18561 2.48025 3.65984 2.14969 4.18042 1.91723C5.22947 1.48331 6.39975 1.48331 7.44879 1.91723C7.96733 2.13981 8.43559 2.46637 8.83156 2.87579L10.9686 5.10161L13.1056 2.87579C13.5013 2.46564 13.9711 2.13994 14.4883 1.91723C15.5374 1.48331 16.7077 1.48331 17.7567 1.91723C18.2768 2.14956 18.7514 2.48099 19.1552 2.89204C19.4286 3.16011 19.658 3.47205 19.8309 3.81811C20.1948 4.48173 20.3844 5.23231 20.3808 5.99519C20.4022 6.38775 20.3705 6.78148 20.2866 7.16497H20.2394Z" fill="#B9B9B9"/>
</svg>
