<svg width="22" height="19" viewBox="0 0 22 19" fill="none" xmlns="http://www.w3.org/2000/svg">
<path d="M10.6466 2.34141C8.41237 -0.783092 3.76612 -0.780093 1.53712 2.34816C0.789404 3.39726 0.426527 4.67221 0.509738 5.95781C0.592949 7.24342 1.11715 8.46095 1.99387 9.40491L10.4501 18.5099C10.5203 18.5854 10.6052 18.6456 10.6996 18.6868C10.794 18.7279 10.8959 18.7492 10.999 18.7493C11.102 18.7494 11.2039 18.7282 11.2984 18.6872C11.3929 18.6461 11.4779 18.586 11.5481 18.5107L19.9991 9.43716C20.885 8.4858 21.4131 7.25629 21.493 5.95878C21.5728 4.66126 21.1996 3.37627 20.4371 2.32341C18.1796 -0.792843 13.5251 -0.762093 11.3089 2.38416L10.9961 2.82891L10.6474 2.34141H10.6466Z" fill="#FF7373"/>
</svg>
